<?xml version="1.0" standalone="no"?>
<!DOCTYPE svg PUBLIC "-//W3C//DTD SVG 20010904//EN"
 "http://www.w3.org/TR/2001/REC-SVG-20010904/DTD/svg10.dtd">
<svg version="1.0" xmlns="http://www.w3.org/2000/svg"
 width="28px" height="28px" viewBox="0 0 500.000000 500.000000"
 preserveAspectRatio="xMidYMid meet">

<g transform="translate(0.000000,500.000000) scale(0.100000,-0.100000)" stroke="none">
<path d="M1655 4105 c-250 -40 -584 -254 -772 -494 -87 -111 -182 -299 -207
-409 -23 -102 -21 -234 4 -301 48 -125 136 -184 304 -203 93 -11 112 -10 209
10 100 20 112 25 209 90 84 56 119 88 188 171 47 56 86 105 88 110 2 5 -20 26
-48 46 l-51 38 -68 -46 c-174 -119 -370 -159 -451 -91 -154 130 -38 485 213
656 142 96 272 121 408 78 65 -21 82 -33 168 -115 53 -50 121 -105 151 -122
108 -60 260 -64 383 -10 31 14 57 23 57 19 0 -3 -11 -17 -24 -31 -49 -54 -157
-253 -215 -396 -70 -175 -121 -363 -191 -710 -66 -327 -100 -451 -166 -614
-96 -234 -218 -401 -373 -513 -112 -80 -222 -127 -336 -143 -243 -34 -385 55
-385 241 0 59 22 160 45 204 12 23 11 28 -16 58 -29 32 -29 32 -62 16 -31 -16
-405 -273 -439 -301 -15 -14 -12 -24 43 -136 33 -66 65 -127 72 -135 6 -9 55
-47 107 -86 l95 -71 137 -24 137 -24 144 20 c133 19 155 25 293 85 125 54 172
80 289 165 357 259 599 589 766 1049 l30 81 50 6 c28 4 75 18 105 31 50 23 55
24 61 8 3 -9 12 -32 20 -51 24 -60 26 -223 8 -486 -44 -628 27 -871 265 -908
62 -9 83 -8 204 18 134 27 137 29 290 119 133 78 177 111 315 236 89 79 161
147 161 152 0 7 -136 128 -144 128 -2 0 -53 -41 -112 -90 -143 -119 -264 -193
-357 -219 -81 -22 -107 -20 -153 15 -36 27 -31 -15 -69 539 -35 513 -52 572
-189 681 l-39 31 39 35 c21 19 69 62 106 94 99 88 272 293 425 507 228 318
530 647 647 705 152 76 253 58 306 -55 22 -47 24 -104 5 -169 -5 -16 1 -26 26
-42 32 -20 33 -20 68 -2 42 21 384 277 389 290 2 4 -20 39 -48 78 -184 252
-523 252 -900 -1 -241 -162 -403 -341 -715 -792 -216 -313 -317 -436 -441
-538 l-59 -48 -85 -3 c-47 -1 -95 -8 -107 -15 -27 -14 -27 -20 -13 116 5 54
14 159 20 233 20 235 45 341 122 519 59 135 173 309 283 431 43 47 83 100 91
118 15 33 15 34 -28 72 -24 22 -45 39 -48 39 -3 1 -48 -36 -100 -80 -116 -99
-236 -172 -312 -192 -104 -27 -153 -4 -308 148 -128 126 -192 165 -301 184
-79 13 -109 13 -214 -4z m813 -1709 c3 -12 -1 -17 -10 -14 -7 3 -15 13 -16 22
-3 12 1 17 10 14 7 -3 15 -13 16 -22z"/>
</g>
</svg>
